<?xml version="1.0" encoding="utf-8"?>
<!-- Generator: Adobe Illustrator 19.2.0, SVG Export Plug-In . SVG Version: 6.00 Build 0)  -->
<!DOCTYPE svg PUBLIC "-//W3C//DTD SVG 1.1//EN" "http://www.w3.org/Graphics/SVG/1.1/DTD/svg11.dtd">
<svg version="1.1" id="Layer_1" xmlns="http://www.w3.org/2000/svg" xmlns:xlink="http://www.w3.org/1999/xlink" x="0px" y="0px"
	 width="385px" height="235px" viewBox="0 0 385 235" style="enable-background:new 0 0 385 235;" xml:space="preserve">
<g>
	<g>
		<path fill="currentColor" class="st0" d="M379.9,12.5c-11-19-69.4-7-142,26.5c3.8,2.9,7.3,6,10.5,9.3c55.8-23.5,99-30.9,107.8-15.6
			c10.4,18-30.4,61.7-95.4,105.5l0.7,0.8C341,87.1,392.2,33.8,379.9,12.5z"/>
		<path fill="currentColor" class="st0" d="M36.1,217.5c-6.4-11.1,6.8-32.1,33-56.8c0,0,0,0,0,0c-2.1-0.8-4.2-1.5-6.2-2.4c-0.1,0-0.2-0.1-0.3-0.1
			c-2.1-0.8-4.1-1.7-6.1-2.6l0,0c-31.6,29.1-47.6,53.9-40.2,66.9c8.8,15.2,47.8,10.6,100.2-9l-0.6-0.9
			C74.1,227.2,43.3,230,36.1,217.5z"/>
		<g>
			<path fill="currentColor" class="st0" d="M3.2,90.1c0-45,59-81.6,131.9-81.6C208,8.6,267,45.1,267,90.1s-59,81.6-131.9,81.6
				C62.3,171.7,3.2,135.2,3.2,90.1z M78,26.7l24.8,85h0.1l26.4-95.9C110.6,16.4,93.1,20.3,78,26.7z M127.9,61.8l-13.6,49.8h27.5
				L127.9,61.8z M167,111.6L190.6,26c-15.2-6.2-32.9-9.9-51.7-10.3L167,111.6L167,111.6z M77.5,111.6L63.9,61.8l-13.6,49.8H77.5z
				 M233.9,121.6c6.5-9.6,10.2-20.2,10.2-31.5c0-21.8-13.7-41.4-35.5-55L233.9,121.6z M205.9,111.6L192,61.8l-13.5,49.8H205.9z
				 M208.7,121.6h-32.9l-2.9,10.5l7.5,25.7c12.8-4,24.2-9.6,33.8-16.5L208.7,121.6z M90.2,157.8l-9.9-36.2H47.5l-2.8,10.2
				C56,143.1,71.7,152.2,90.1,158L90.2,157.8z M144.6,121.6h-33l-10.7,39.2c10.8,2.4,22.3,3.8,34.3,3.8c7.2,0,14.3-0.5,21.1-1.4
				L144.6,121.6z M59.5,36.5C39,50,26.1,69,26.1,90.1c0,11.1,3.6,21.7,10,31.2L59.5,36.5z"/>
		</g>
	</g>
</g>
</svg>
