<?xml version="1.0" encoding="utf-8"?>
<!-- Generator: Adobe Illustrator 21.0.0, SVG Export Plug-In . SVG Version: 6.00 Build 0)  -->
<svg version="1.1" id="Layer_1" xmlns="http://www.w3.org/2000/svg" xmlns:xlink="http://www.w3.org/1999/xlink" x="0px" y="0px"
	 viewBox="0 0 100 100" style="enable-background:new 0 0 100 100;" xml:space="preserve">
<style type="text/css">
	.st0{display:none;}
	.st1{display:inline;}
	.st2{fill:none;stroke:#9D9D9D;stroke-width:8;stroke-linecap:round;stroke-linejoin:round;stroke-miterlimit:10;}
</style>
<g class="st0">
	<path class="st1" d="M70.9,23.6c-11.5-11.5-30.2-11.5-41.7,0s-11.5,30.2,0,41.7c3,3,19.6,19.6,19.6,19.6s18.8-16.3,22.1-19.6
		C82.4,53.8,82.4,35.2,70.9,23.6z M50,56.1c-6.9,0-12.4-5.6-12.4-12.4S43.1,31.3,50,31.3s12.4,5.6,12.4,12.4S56.9,56.1,50,56.1z"/>
	<circle class="st1" cx="50" cy="43.7" r="7.9"/>
</g>
<g>
	<path class="st2" d="M50,82l17-17.4c5.3-5.5,8.8-12,8.8-20C75.8,29.9,64.2,18,50,18S24.2,29.9,24.2,44.6c0,7.9,3.3,14.4,8.8,19.9
		L50,82z"/>
	<ellipse class="st2" cx="50" cy="44.6" rx="7.9" ry="8.2"/>
</g>
</svg>
